<?xml version="1.0" encoding="utf-8"?>
<!-- Generator: Adobe Illustrator 25.4.1, SVG Export Plug-In . SVG Version: 6.00 Build 0)  -->
<svg version="1.1" id="Слой_1" xmlns="http://www.w3.org/2000/svg" xmlns:xlink="http://www.w3.org/1999/xlink" x="0px" y="0px"
	 viewBox="0 0 559.53 578.2" style="enable-background:new 0 0 559.53 578.2;" xml:space="preserve">
<style type="text/css">
	.st0{fill:#F2F2F2;}
	.st1{fill:#2B2B2B;}
	.st2{fill:#1A1A1A;}
	.st3{fill:url(#SVGID_1_);}
	.st4{fill:url(#SVGID_00000105416382549060556800000013271604963105688197_);}
	.st5{fill:url(#SVGID_00000167358333389992593270000005089486181640357301_);}
	.st6{fill:url(#SVGID_00000159456010093735143440000007086646442242007990_);}
	.st7{fill:url(#SVGID_00000048492361738969475850000017617930169904426116_);}
	.st8{fill:url(#SVGID_00000103978826676906267340000001994001079337376684_);}
	.st9{fill:url(#SVGID_00000118378024654568274730000014013916064976403635_);}
	.st10{fill:url(#SVGID_00000102502381136504304740000015084293760632011963_);}
	.st11{fill:url(#SVGID_00000084516422941279048910000002341502797061164176_);}
</style>
<g>
	<linearGradient id="SVGID_1_" gradientUnits="userSpaceOnUse" x1="239.1485" y1="747.8406" x2="659.0264" y2="207.3595">
		<stop  offset="0" style="stop-color:#480AE7"/>
		<stop  offset="1" style="stop-color:#7F06EE"/>
	</linearGradient>
	<path class="st3" d="M384.33,318.2l-78.67,116.2c16.44,25.68,32.07,49.51,46.78,71.53l47.89,72.28h159.19L384.33,318.2z"/>
	
		<linearGradient id="SVGID_00000160876972422227031150000014517115758536909197_" gradientUnits="userSpaceOnUse" x1="-154.7629" y1="441.8269" x2="265.115" y2="-98.6543">
		<stop  offset="0" style="stop-color:#480AE7"/>
		<stop  offset="1" style="stop-color:#7F06EE"/>
	</linearGradient>
	<path style="fill:url(#SVGID_00000160876972422227031150000014517115758536909197_);" d="M253.12,129.47
		c-25.44-40.14-38.4-60.86-38.77-62.1L170.54,0H12.16l162.36,244.93L253.12,129.47z"/>
	
		<linearGradient id="SVGID_00000107583663675775067960000017046252722025031065_" gradientUnits="userSpaceOnUse" x1="99.1607" y1="639.0898" x2="519.0386" y2="98.6086">
		<stop  offset="0" style="stop-color:#480AE7"/>
		<stop  offset="1" style="stop-color:#7F06EE"/>
	</linearGradient>
	<path style="fill:url(#SVGID_00000107583663675775067960000017046252722025031065_);" d="M278.86,473.05H227.1l53.13-78.48
		L547.37,0H393.88L278.49,169.37l-78.11,114.65L0,578.2h58.13h97.77h192.32l-32.01-48.27C304.55,512.44,292.02,493.39,278.86,473.05
		z"/>
</g>
</svg>
