<?xml version="1.0" encoding="utf-8"?>
<!-- Generator: Adobe Illustrator 25.4.1, SVG Export Plug-In . SVG Version: 6.00 Build 0)  -->
<svg version="1.1" id="Слой_1" xmlns="http://www.w3.org/2000/svg" xmlns:xlink="http://www.w3.org/1999/xlink" x="0px" y="0px"
	 viewBox="0 0 2218.84 578.2" style="enable-background:new 0 0 2218.84 578.2;" xml:space="preserve">
<style type="text/css">
	.st0{fill:#F2F2F2;}
	.st1{fill:#2B2B2B;}
	.st2{fill:#1A1A1A;}
	.st3{fill:url(#SVGID_1_);}
	.st4{fill:url(#SVGID_00000119829691088238502740000005131925689266892437_);}
	.st5{fill:url(#SVGID_00000061445990314556811020000016684577380101063330_);}
	.st6{fill:url(#SVGID_00000175282948127154667180000017002883946549534603_);}
	.st7{fill:url(#SVGID_00000136390729524308848310000001735574338691740316_);}
	.st8{fill:url(#SVGID_00000140714007460821689860000009948206501222126015_);}
	.st9{fill:url(#SVGID_00000111888907607266522890000012319407290599810714_);}
	.st10{fill:url(#SVGID_00000026854210482617319240000000907627032830030470_);}
	.st11{fill:url(#SVGID_00000159457508771417158900000009396086323848057779_);}
</style>
<g>
	<g>
		<path class="st2" d="M747.4,97.36V410.4h179.56v64.09H675.9V97.36H747.4z"/>
		<path class="st2" d="M1211.39,342.6v15.89h-204.46c2.47,23.3,9.8,40.88,21.98,52.7c12.18,11.84,28.51,17.74,49,17.74
			c30.37,0,51.19-13.06,62.5-39.2h64.09c-7.07,27.9-21.9,50.06-44.49,66.48c-22.6,16.42-50.15,24.63-82.63,24.63
			c-40.61,0-73.45-13.06-98.52-39.2c-25.08-26.13-37.61-60.73-37.61-103.82c0-43.08,12.36-77.68,37.08-103.81
			c25.07-26.13,57.73-39.2,97.99-39.2c41.32,0,74.16,13.6,98.52,40.78C1199.21,262.8,1211.39,298.46,1211.39,342.6z M1075.79,246.73
			c-39.2,0-61.97,21.72-68.33,65.15h137.18c-2.83-20.13-10.24-36.02-22.25-47.67C1110.4,252.55,1094.86,246.73,1075.79,246.73z"/>
		<path class="st2" d="M1497.42,474.49h-66.74c-3.18-5.64-5.65-16.77-7.42-33.37c-18.37,26.48-47.67,39.73-87.93,39.73
			c-30.02,0-53.94-7.23-71.77-21.72c-17.84-14.47-26.75-34.6-26.75-60.38c0-49.79,34.96-78.21,104.88-85.28l41.32-3.71
			c13.77-1.76,23.65-5.03,29.66-9.8c6-4.76,9-11.92,9-21.45c0-11.65-3.8-20.21-11.39-25.69c-7.6-5.47-20.39-8.21-38.4-8.21
			c-19.43,0-33.37,3.27-41.85,9.8c-8.48,6.54-13.42,17.74-14.83,33.63h-65.68c3.88-62.14,44.84-93.22,122.89-93.22
			c75.92,0,113.88,27.37,113.88,82.1v145.66C1486.3,446.6,1490,463.89,1497.42,474.49z M1351.23,433.17
			c20.83,0,37.78-5.73,50.85-17.21c13.06-11.47,19.6-27.98,19.6-49.52v-24.9c-6.36,5.65-16.78,9.36-31.25,11.12l-36.02,4.24
			c-17.66,2.12-30.28,6.27-37.87,12.45c-7.6,6.18-11.39,15.1-11.39,26.75c0,11.65,3.97,20.75,11.92,27.28
			C1325.01,429.91,1336.4,433.17,1351.23,433.17z"/>
		<path class="st2" d="M1729.42,236.66V97.36h66.74v377.13h-64.62v-38.14c-20.13,29.66-48.91,44.49-86.34,44.49
			c-37.79,0-67.62-13.06-89.51-39.2c-22.25-26.13-33.37-60.73-33.37-103.82c0-43.78,11.12-78.56,33.37-104.34
			c21.53-25.77,51.38-38.67,89.51-38.67C1681.92,194.82,1709.99,208.77,1729.42,236.66z M1590.64,339.95
			c0,28.25,6.17,49.62,18.54,64.09c12.36,14.48,29.48,21.72,51.38,21.72c21.89,0,39.2-7.59,51.91-22.77
			c12.36-15.18,18.54-36.9,18.54-65.15c0-28.24-6.18-49.96-18.54-65.15c-12.37-15.18-29.66-22.78-51.91-22.78
			c-21.54,0-38.58,7.95-51.11,23.84C1596.9,289.63,1590.64,311.7,1590.64,339.95z"/>
		<path class="st2" d="M1916.92,474.49h-66.74V201.18h66.74V474.49z M1916.39,165.69h-65.68v-62.5h65.68V165.69z"/>
		<path class="st2" d="M2213.54,201.18l-96.4,132.95l101.7,140.37h-76.28l-10.06-14.3c-17.31-25.42-26.84-39.37-28.6-41.85
			c-13.77-19.41-21.9-31.25-24.36-35.49c-25.08,36.38-42.91,62.15-53.5,77.33l-10.06,14.3h-74.68l101.7-139.84l-96.4-133.48h76.27
			l14.3,20.13c18.71,26.48,33.37,48.03,43.96,64.62c17.3-26.13,31.78-47.67,43.43-64.62l14.3-20.13H2213.54z"/>
	</g>
	<g>
		<linearGradient id="SVGID_1_" gradientUnits="userSpaceOnUse" x1="239.1485" y1="747.8406" x2="659.0264" y2="207.3595">
			<stop  offset="0" style="stop-color:#480AE7"/>
			<stop  offset="1" style="stop-color:#7F06EE"/>
		</linearGradient>
		<path class="st3" d="M384.33,318.2l-78.67,116.2c16.44,25.68,32.07,49.51,46.78,71.53l47.89,72.28h159.19L384.33,318.2z"/>
		
			<linearGradient id="SVGID_00000170238119321887214220000013138363200418755519_" gradientUnits="userSpaceOnUse" x1="-154.7629" y1="441.8269" x2="265.115" y2="-98.6543">
			<stop  offset="0" style="stop-color:#480AE7"/>
			<stop  offset="1" style="stop-color:#7F06EE"/>
		</linearGradient>
		<path style="fill:url(#SVGID_00000170238119321887214220000013138363200418755519_);" d="M253.12,129.47
			c-25.44-40.14-38.4-60.86-38.77-62.1L170.54,0H12.16l162.36,244.93L253.12,129.47z"/>
		
			<linearGradient id="SVGID_00000091730165728743588720000005948860195443625646_" gradientUnits="userSpaceOnUse" x1="99.1607" y1="639.0898" x2="519.0386" y2="98.6086">
			<stop  offset="0" style="stop-color:#480AE7"/>
			<stop  offset="1" style="stop-color:#7F06EE"/>
		</linearGradient>
		<path style="fill:url(#SVGID_00000091730165728743588720000005948860195443625646_);" d="M278.86,473.05H227.1l53.13-78.48
			L547.37,0H393.88L278.49,169.37l-78.11,114.65L0,578.2h58.13h97.77h192.32l-32.01-48.27
			C304.55,512.44,292.02,493.39,278.86,473.05z"/>
	</g>
</g>
</svg>
